<svg width="180" height="76" xmlns="http://www.w3.org/2000/svg"><g fill="none" fill-rule="evenodd"><path fill="#7070F3" d="m36 62.577 53.996 13.891.005-47.906-35.336-10.985z"/><path fill="#CACAFB" d="M35.998 26.368 0 71.577l36-9 18.665-45zM90.004 28.562 90 76.468 144 62.004l-18.66-44.43z"/><path fill="#7070F3" d="M143.999 62.004 180 71.577l-35.999-45.21-18.663-8.793z"/><path fill="#FFEB86" d="m50.679 27.175-8.695 3.606-1.576 2.519 8.175-1.061z"/><path fill="#CAAA2A" d="m86.013 29.658-1.178 2.432-10.282-.172-14.38-6.099-1.015.315 2.196 4.64-10.67-3.601-2.1 5.066 5.488 6.058 5 2.242-.17 3 2.79 2.41.507 2.577-4.311-3.95-7.206 7.94-5.03.771 11.905 6.99 14.533 4.215 17.907 7.085.005-.002V30.701z"/><path fill="#5A8F2B" d="m135.447 41.643.469-.262-.963-.919"/><path fill="#CAAA2A" d="m144.458 50.308.76-1.754-8.133-3.01 2.261 5.382z"/><path fill="#FFEB86" d="m137.085 45.544-.194-.072h-1.349l.714-1.4-4.415-.633 3.606-1.796-.496-1.18-1.345-1.79-4.367-1.366-5.907 3.747.243-2.672 7.693-6.679-1.713-5.259-.685-.461-9.1 1.155-5.819 1.424-10.138 1.717-12.087-.453-1.722.876h-.002v40.873l9.077-2.762V64.69l7.687-6.076 14.188-1.38 15.937-3.898 2.226-2.38.23-.029z"/><path fill="#CAAA2A" d="m134.597 32.043-.51-3.612-5.217-2.448 2.398 5.72z"/><path fill="#E1000F" d="m52.338 42.811-3.498 2.02v4.04l3.312 5.713h.373l3.312-5.714v-4.039z"/><path fill="#FFF" d="M53.339 46.273h1.325v-.765l-2.326-1.343-2.326 1.343v2.686l2.326 1.343 2.326-1.343v-.766H53.34z"/><path fill="#000091" d="M53.339 47.428v-1.155l-1-.577-1 .577v1.155l1 .578z"/><path fill="#E1000F" d="m72.331 29.353-3.498 2.02v4.039l3.312 5.714h.373l3.312-5.714v-4.04z"/><path fill="#FFF" d="M73.332 32.815h1.325v-.766l-2.326-1.343-2.326 1.343v2.686l2.326 1.343 2.326-1.343v-.766h-1.325z"/><path fill="#000091" d="M73.332 33.97v-1.155l-1-.578-1 .578v1.155l1 .577z"/><path fill="#E1000F" d="m78.22 48.78-3.497 2.019v4.039l3.311 5.714h.373l3.312-5.714v-4.04z"/><path fill="#FFF" d="M79.221 52.241h1.326v-.765l-2.326-1.343-2.326 1.343v2.685l2.326 1.343 2.326-1.343v-.765H79.22z"/><path fill="#000091" d="M79.221 53.396v-1.155l-1-.578-1 .578v1.155l1 .578z"/><path fill="#E1000F" d="m42.886 20.097-3.498 2.02v4.039l3.311 5.714h.373l3.312-5.714v-4.04z"/><path fill="#FFF" d="M43.886 23.559h1.325v-.766l-2.325-1.343-2.326 1.343v2.686l2.326 1.343 2.325-1.343v-.766h-1.325z"/><path fill="#000091" d="M43.886 24.713V23.56l-1-.578-1 .578v1.154l1 .578z"/><path fill="#E1000F" d="m113.556 41.135-3.498 2.02v4.038l3.311 5.715h.374l3.311-5.715v-4.039z"/><path fill="#FFF" d="M114.556 44.596h1.326v-.765l-2.326-1.343-2.326 1.343v2.686l2.326 1.343 2.326-1.343v-.766h-1.326z"/><path fill="#000091" d="M114.556 45.751v-1.154l-1-.578-1 .578v1.154l1 .578z"/><path fill="#E1000F" d="m119.448 23.285-3.498 2.02v4.039l3.311 5.714h.373l3.312-5.714v-4.04z"/><path fill="#FFF" d="M120.448 26.747h1.326v-.766l-2.326-1.343-2.326 1.343v2.686l2.326 1.343 2.326-1.343v-.766h-1.326z"/><path fill="#000091" d="M120.448 27.902v-1.155l-1-.578-1 .578v1.155l1 .577z"/><path fill="#E1000F" d="M90 0 76.023 8.069v16.138l13.975 22.83 13.977-22.83V8.07z"/><path fill="#FFF" d="M93.996 13.831h5.297v-3.058L90 5.407l-9.294 5.366v10.73L90 26.87l9.293-5.366v-3.059h-5.297z"/><path fill="#000091" d="M93.996 18.445v-4.614L90 11.523l-3.997 2.308v4.614L90 20.753z"/><path fill="#CAAA2A" d="m158.82 54.489-1.122-1.974h1.431l2.245 3.677 3.599 3.56-.155 1.912 1.741 1.764v2.554l-8.59-5.418-4.528-5.727 1.122-1.006z"/><path fill="#E1000F" d="m158.967 47.534-3.498 2.02v4.039l3.311 5.714h.374l3.311-5.714v-4.04z"/><path fill="#FFF" d="M159.967 50.996h1.326v-.766l-2.326-1.343-2.326 1.343v2.686l2.326 1.343 2.326-1.343v-.765h-1.326z"/><path fill="#000091" d="M159.967 52.15v-1.154l-1-.578-1 .578v1.155l1 .578z"/></g></svg>
