<svg width="1329" height="401" fill="none" xmlns="http://www.w3.org/2000/svg"><path d="M292.957 363.662 46.677 222.04c-6.129-3.524-12.948 3.384-9.345 9.467l83.893 141.621a6.88 6.88 0 0 0 5.917 3.372h162.387c7.042 0 9.533-9.328 3.428-12.838zM319.152 27H143.053a6.726 6.726 0 0 0-6.726 6.683l-.861 132.173c-.029 4.385 4.079 7.625 8.336 6.575l126.949-31.296a6.727 6.727 0 0 0 4.416-3.544l50.011-100.877c2.217-4.47-1.036-9.714-6.026-9.714z" fill="#169B62"/><path d="m121.07 239.212 1.171-178.406c.044-6.742-8.883-9.17-12.259-3.333L32.295 191.765a6.572 6.572 0 0 0 2.406 8.984l76.516 44.113c4.364 2.516 9.82-.612 9.853-5.65z" fill="#FFE800"/><path d="m191.727 291.026-52.363-30.315a6.486 6.486 0 0 1-3.236-5.656l.406-62.537a6.486 6.486 0 0 1 4.935-6.256l111.293-27.426c5.355-1.319 9.81 4.222 7.369 9.168l-59.337 120.278a6.486 6.486 0 0 1-9.067 2.744zM410.566 217.616l-195.551 77.466c-5.297 2.098-5.815 9.391-.869 12.217l114.316 65.323a6.794 6.794 0 0 0 9.277-2.539l81.236-142.79c3.173-5.578-2.442-12.041-8.409-9.677z" fill="#5770BE"/><path d="M338.345 35.114 223.51 266.933c-2.725 5.5 2.749 11.471 8.465 9.233l204.294-79.997c3.848-1.507 5.434-6.1 3.336-9.661L350.146 34.685c-2.708-4.595-9.434-4.35-11.801.428z" fill="#000091"/><path d="M504.925 169.349c8.246 9.842 18.753 15.561 34.447 15.561 17.157 0 30.723-10.507 30.989-28.063 0-31.92-42.294-27.132-42.294-44.023 0-5.586 4.389-9.842 11.039-9.842 7.049 0 13.167 4.655 18.62 11.704l13.832-12.502c-7.98-9.443-18.62-15.694-32.585-15.694-17.822 0-30.058 12.236-30.058 26.999 0 31.521 42.294 26.866 42.294 44.023 0 6.65-4.522 10.64-11.97 10.64-7.581 0-15.029-4.256-20.615-11.438l-13.699 12.635zM627.83 86.49c-29.393 0-49.476 22.61-49.476 49.21s20.083 49.21 49.476 49.21c29.26 0 49.343-22.61 49.343-49.21S657.09 86.49 627.83 86.49zm0 80.731c-17.556 0-30.058-13.699-30.058-31.521 0-17.822 12.502-31.521 30.058-31.521 17.423 0 29.925 13.699 29.925 31.521 0 17.822-12.502 31.521-29.925 31.521zm108.619 0c-17.556 0-30.058-13.699-30.058-31.521 0-17.822 12.502-31.521 30.058-31.521 10.64 0 19.019 5.187 24.339 12.768l14.896-11.571c-8.512-11.305-22.344-18.886-39.235-18.886-29.393 0-49.476 22.61-49.476 49.21s20.083 49.21 49.476 49.21c16.891 0 30.723-7.448 39.235-19.019l-14.896-11.438c-5.32 7.581-13.699 12.768-24.339 12.768zm52.965 15.029H808.3v-93.1h-18.886v93.1zm77.759-101.08 17.29-17.955h-19.418L850.016 81.17h17.157zm-35.511 101.08h54.264v-15.694h-35.378v-23.94h30.058v-15.694h-30.058v-22.078h35.378V89.15h-54.264v93.1zm65.923-75.943h28.728v75.943h18.886v-75.943h28.728V89.15h-76.342v17.157zM1023.37 81.17l17.29-17.955h-19.42l-15.03 17.955h17.16zm-35.516 101.08h54.266v-15.694h-35.38v-23.94h30.06v-15.694h-30.06v-22.078h35.38V89.15h-54.266v93.1zm-474.55 152h18.886v-67.298l41.629 67.298h24.206v-93.1h-18.886v67.298L537.51 241.15h-24.206v93.1zm161.964-34.846c0 12.502-7.182 19.817-18.753 19.817-11.837 0-18.886-7.315-18.886-19.817V241.15h-18.886v56.658c0 24.472 14.364 39.102 37.639 39.102 23.408 0 37.772-14.63 37.772-39.102V241.15h-18.886v58.254zm39.687 34.846h18.886v-66.766l20.748 34.846h13.3l20.748-34.846v66.766h18.886v-93.1h-23.541l-22.743 39.102-22.743-39.102h-23.541v93.1zm151.403-101.08 17.29-17.955H864.23l-15.029 17.955h17.157zm-35.511 101.08h54.264v-15.694h-35.378v-23.94h30.058v-15.694h-30.058v-22.078h35.378V241.15h-54.264v93.1zm73.55 0h18.886v-37.639h9.709l24.871 37.639h22.211l-29.127-41.23c9.576-4.389 15.029-12.768 15.029-24.073 0-17.29-12.635-27.797-33.117-27.797h-28.462v93.1zm29.526-77.406c7.98 0 12.635 4.788 12.635 11.837 0 7.581-4.655 12.236-12.635 12.236h-10.64v-24.073h10.64zm55.453 77.406h18.884v-93.1h-18.884v93.1zm120.324-2.394-5.59-5.32c11.44-9.044 18.35-23.275 18.35-38.836 0-26.6-20.08-49.21-49.34-49.21-29.39 0-49.48 22.61-49.48 49.21s20.09 49.21 49.48 49.21c4.52 0 8.78-.532 12.77-1.596l11.04 9.842c9.17 7.98 18.75 12.236 29.12 12.236 4.13 0 6.79-.532 9.85-1.729v-15.96c-2 .798-4.66 1.064-6.65 1.064-5.99 0-12.37-2.394-19.55-8.911zm-36.58-12.635c-17.56 0-30.06-13.699-30.06-31.521 0-17.822 12.5-31.521 30.06-31.521 17.42 0 29.93 13.699 29.93 31.521 0 17.822-12.51 31.521-29.93 31.521zm119.69-19.817c0 12.502-7.18 19.817-18.75 19.817-11.84 0-18.89-7.315-18.89-19.817V241.15h-18.89v56.658c0 24.472 14.37 39.102 37.64 39.102 23.41 0 37.78-14.63 37.78-39.102V241.15h-18.89v58.254zm39.69 34.846h54.26v-15.694h-35.38v-23.94h30.06v-15.694h-30.06v-22.078h35.38V241.15h-54.26v93.1z" fill="#000"/></svg>
