<svg version="1.1" id="Calque_1" xmlns="http://www.w3.org/2000/svg" x="0" y="0" viewBox="0 0 370.89 169.11" style="enable-background:new 0 0 370.89 169.11" xml:space="preserve"><style>.st0{fill:#273375}</style><path class="st0" d="M11.34.86h7.96l11.34 29.95h-6.46l-2.87-7.79H9.33l-2.87 7.79H0L11.34.86zm8.08 16.98-4.1-11.25-4.11 11.25h8.21zM55.73 23.36v-5.05h-7.62v-5.52H61.8v12.75c-2.78 3.72-7.45 6.12-13.05 6.12-9.71 0-16.34-7.27-16.34-15.83C32.42 7.27 38.88 0 48.33 0c5.43 0 9.88 2.44 12.62 6.08L56.16 9.8c-1.71-2.44-4.41-4.11-7.83-4.11-5.65 0-9.67 4.41-9.67 10.14s4.24 10.14 10.1 10.14c2.82 0 5.26-.98 6.97-2.61zM68.98.86h17.46v5.18H75.05v6.93h9.67v5.18h-9.67v7.49h11.38v5.18H68.98V.86zM93.91.86h7.79l13.39 21.43V.86h6.08v29.95h-7.79L99.98 9.28V30.8h-6.07V.86zM151.14 21.86l4.79 3.68c-2.74 3.72-7.19 6.12-12.62 6.12-9.46 0-15.92-7.27-15.92-15.83S133.85 0 143.31 0c5.43 0 9.88 2.44 12.62 6.08l-4.79 3.72c-1.71-2.44-4.41-4.11-7.83-4.11-5.65 0-9.67 4.41-9.67 10.14s4.02 10.14 9.67 10.14c3.42 0 6.12-1.67 7.83-4.11zM161.6.86h17.46v5.18h-11.38v6.93h9.67v5.18h-9.67v7.49h11.38v5.18H161.6V.86zM3.77 46.67h7.79L24.95 68.1V46.67h6.08v29.95h-7.79L9.84 55.1v21.52H3.77V46.67zM47.39 46.67h7.96l11.34 29.95h-6.46l-2.87-7.79H45.38l-2.87 7.79h-6.46l11.34-29.95zm8.08 16.99-4.11-11.25-4.11 11.25h8.22zM65.64 46.67H90.2v5.52h-9.24v24.43h-6.07V52.19h-9.24v-5.52zM95.96 46.67h6.07v29.95h-6.07V46.67zM140.06 61.65c0 8.56-6.46 15.83-15.87 15.83-9.46 0-15.92-7.27-15.92-15.83s6.46-15.83 15.92-15.83c9.41 0 15.87 7.27 15.87 15.83zm-6.24 0c0-5.73-4.02-10.14-9.63-10.14-5.65 0-9.67 4.41-9.67 10.14s4.02 10.14 9.67 10.14c5.6 0 9.63-4.41 9.63-10.14zM146.29 46.67h7.79l13.39 21.43V46.67h6.08v29.95h-7.79L152.37 55.1v21.52h-6.07V46.67zM189.91 46.67h7.96l11.34 29.95h-6.46l-2.87-7.79H187.9l-2.87 7.79h-6.46l11.34-29.95zM198 63.66l-4.11-11.25-4.11 11.25H198zM214.24 46.67h6.07V71.1h11.38v5.52h-17.46V46.67zM237.46 46.67h17.46v5.18h-11.38v6.93h9.67v5.18h-9.67v7.49h11.38v5.18h-17.46V46.67zM4.32 92.49H15.7c9.28 0 15.62 6.89 15.62 14.97s-6.33 14.98-15.62 14.98H4.32V92.49zm2.74 2.52v24.9h8.68c7.4 0 12.71-5.65 12.71-12.45 0-6.85-5.31-12.45-12.71-12.45H7.06zM38.66 92.49h15.23v2.44H41.4v11.08h10.78v2.4H41.4V120h12.49v2.44H38.66V92.49zM73.72 92.49h2.74v27.42h12.49v2.53H73.72V92.49zM104.73 92.49h3.72l12.32 29.95h-2.87l-3.85-9.41H99.13l-3.85 9.41h-2.91l12.36-29.95zm8.34 18.1-6.46-15.96-6.5 15.96h12.96zM159.38 113.5l4.79 3.68c-2.74 3.72-7.19 6.12-12.62 6.12-9.46 0-15.92-7.27-15.92-15.83s6.46-15.83 15.92-15.83c5.43 0 9.88 2.44 12.62 6.08l-4.79 3.72c-1.71-2.44-4.41-4.11-7.83-4.11-5.65 0-9.67 4.41-9.67 10.14s4.02 10.14 9.67 10.14c3.43-.01 6.12-1.67 7.83-4.11zM198.86 107.46c0 8.56-6.46 15.83-15.87 15.83-9.46 0-15.92-7.27-15.92-15.83s6.46-15.83 15.92-15.83c9.41 0 15.87 7.28 15.87 15.83zm-6.25 0c0-5.73-4.02-10.14-9.63-10.14-5.65 0-9.67 4.41-9.67 10.14s4.02 10.14 9.67 10.14c5.61 0 9.63-4.4 9.63-10.14zM205.09 92.49h6.07v11.94h15.1V92.49h6.08v29.95h-6.08v-12.49h-15.1v12.49h-6.07V92.49zM241.13 92.49h17.46v5.18h-11.38v6.93h9.67v5.18h-9.67v7.49h11.38v5.18h-17.46V92.49zm5.91-2.57 4.83-5.78h6.25l-5.56 5.78h-5.52zM267.78 114.22c1.8 2.31 4.19 3.68 6.63 3.68 2.4 0 3.85-1.28 3.85-3.47 0-5.35-13.69-4.15-13.69-14.12 0-4.75 3.89-8.69 9.58-8.69 4.49 0 7.96 2.01 10.48 5.05l-4.45 3.98c-1.75-2.27-3.72-3.72-5.99-3.72-2.1 0-3.46 1.37-3.46 3.12 0 5.35 13.69 4.11 13.69 14.25-.09 5.56-4.45 8.99-9.93 8.99-5.05 0-8.47-1.84-11.12-5.01l4.41-4.06zM291.21 92.49h6.07v29.95h-6.07V92.49zM335.31 107.46c0 8.56-6.46 15.83-15.87 15.83-9.46 0-15.92-7.27-15.92-15.83s6.46-15.83 15.92-15.83c9.41 0 15.87 7.28 15.87 15.83zm-6.24 0c0-5.73-4.02-10.14-9.63-10.14-5.65 0-9.67 4.41-9.67 10.14s4.02 10.14 9.67 10.14c5.6 0 9.63-4.4 9.63-10.14zM341.54 92.49h7.79l13.39 21.43V92.49h6.08v29.95h-7.79l-13.39-21.52v21.52h-6.07V92.49zM4.32 138.31H15.7c9.28 0 15.62 6.89 15.62 14.97 0 8.09-6.33 14.98-15.62 14.98H4.32v-29.95zm2.74 2.52v24.9h8.68c7.4 0 12.71-5.65 12.71-12.45 0-6.85-5.31-12.45-12.71-12.45H7.06zM38.66 138.31h15.23v2.44H41.4v11.08h10.78v2.4H41.4v11.6h12.49v2.44H38.66v-29.96zM62.18 162.31c2.27 2.87 4.79 4.28 7.83 4.28 3.81 0 5.99-2.57 5.99-5.65 0-7.1-14.46-6.55-14.46-15.87 0-4.06 3.34-7.62 8.13-7.62 4.02 0 6.93 1.88 8.94 4.79l-2.1 1.71c-1.75-2.65-4.02-4.02-6.8-4.02-3.25 0-5.35 2.23-5.35 5.13 0 7.23 14.46 6.63 14.46 15.92 0 4.75-3.68 8.09-8.77 8.09-4.06 0-7.27-1.63-9.88-4.92l2.01-1.84zM95.23 138.31h24.56v5.52h-9.24v24.43h-6.07v-24.43h-9.24v-5.52zM125.55 138.31h17.46v5.18h-11.38v6.93h9.67v5.18h-9.67v7.49h11.38v5.18h-17.46v-29.96zM150.48 138.31h9.16c6.59 0 10.65 3.38 10.65 8.94 0 3.59-1.75 6.29-4.79 7.75l9.41 13.26h-7.27l-7.96-12.11h-3.12v12.11h-6.07v-29.95zm6.08 5.17v7.49h3.42c2.57 0 4.07-1.37 4.07-3.81 0-2.27-1.5-3.68-4.07-3.68h-3.42zM179.09 138.31h9.16c6.59 0 10.65 3.38 10.65 8.94 0 3.59-1.75 6.29-4.79 7.75l9.41 13.26h-7.27l-7.96-12.11h-3.12v12.11h-6.07v-29.95zm6.07 5.17v7.49h3.42c2.57 0 4.07-1.37 4.07-3.81 0-2.27-1.5-3.68-4.07-3.68h-3.42zM207.7 138.31h6.07v29.95h-6.07v-29.95zM219.5 138.31h24.56v5.52h-9.24v24.43h-6.07v-24.43h-9.24v-5.52zM277.67 153.28c0 8.56-6.46 15.83-15.87 15.83-9.46 0-15.92-7.27-15.92-15.83s6.46-15.83 15.92-15.83c9.41 0 15.87 7.27 15.87 15.83zm-6.25 0c0-5.73-4.02-10.14-9.63-10.14-5.65 0-9.67 4.41-9.67 10.14s4.02 10.14 9.67 10.14c5.61 0 9.63-4.4 9.63-10.14zM283.9 138.31h6.07v29.95h-6.07v-29.95zM298.78 138.31h9.16c6.59 0 10.65 3.38 10.65 8.94 0 3.59-1.75 6.29-4.79 7.75l9.41 13.26h-7.27l-7.96-12.11h-3.12v12.11h-6.07v-29.95zm6.07 5.17v7.49h3.42c2.57 0 4.07-1.37 4.07-3.81 0-2.27-1.5-3.68-4.07-3.68h-3.42zM327.39 138.31h17.46v5.18h-11.38v6.93h9.67v5.18h-9.67v7.49h11.38v5.18h-17.46v-29.96zM354.03 160.04c1.8 2.31 4.19 3.68 6.63 3.68 2.4 0 3.85-1.28 3.85-3.47 0-5.35-13.69-4.15-13.69-14.12 0-4.75 3.89-8.69 9.58-8.69 4.49 0 7.96 2.01 10.48 5.05l-4.45 3.98c-1.75-2.27-3.72-3.72-5.99-3.72-2.1 0-3.46 1.37-3.46 3.12 0 5.35 13.69 4.11 13.69 14.25-.09 5.56-4.45 8.99-9.93 8.99-5.05 0-8.47-1.84-11.12-5.01l4.41-4.06z"/></svg>
